<?xml version="1.0" standalone="no"?>
<!DOCTYPE svg PUBLIC "-//W3C//DTD SVG 20010904//EN"
 "http://www.w3.org/TR/2001/REC-SVG-20010904/DTD/svg10.dtd">
<svg version="1.0" xmlns="http://www.w3.org/2000/svg"
 width="1024.000000pt" height="1024.000000pt" viewBox="0 0 1024.000000 1024.000000"
 preserveAspectRatio="xMidYMid meet">
<metadata>
Created by potrace 1.14, written by Peter Selinger 2001-2017
</metadata>
<g transform="translate(0.000000,1024.000000) scale(0.100000,-0.100000)"
fill="#000000" stroke="none">
<path d="M2848 9855 c-2 -2 -57 -5 -123 -7 -67 -1 -123 -7 -127 -13 -5 -6 -8
-5 -8 3 0 9 -5 10 -18 3 -11 -6 -24 -6 -35 0 -9 6 -17 6 -17 2 0 -4 -33 -9
-73 -11 -39 -2 -89 -4 -109 -5 -21 -1 -38 -5 -38 -10 0 -4 -4 -6 -8 -3 -5 3
-40 1 -78 -5 -146 -20 -173 -24 -271 -47 -23 -5 -44 -7 -48 -4 -3 3 -5 0 -5
-7 0 -6 -6 -11 -12 -10 -7 1 -20 0 -28 -4 -19 -7 -92 -30 -105 -33 -5 -1 -28
-10 -50 -20 -22 -10 -46 -19 -54 -20 -8 -2 -18 -9 -22 -16 -5 -7 -9 -9 -9 -5
0 7 -40 -13 -145 -73 -81 -47 -95 -56 -95 -62 0 -5 -7 -8 -15 -8 -8 0 -15 -4
-15 -9 0 -5 -8 -12 -18 -15 -10 -4 -27 -14 -38 -24 -10 -10 -35 -29 -54 -42
-19 -13 -56 -45 -82 -71 -27 -25 -48 -45 -48 -43 0 6 -153 -153 -180 -187 -14
-17 -29 -37 -35 -43 -5 -6 -23 -29 -40 -51 -16 -22 -35 -46 -42 -53 -7 -7 -13
-19 -13 -27 0 -7 -4 -15 -9 -17 -8 -3 -91 -135 -91 -145 0 -3 -10 -19 -22 -36
-13 -18 -22 -33 -21 -34 2 -2 -8 -27 -22 -57 -14 -30 -25 -62 -25 -71 0 -10
-5 -13 -12 -9 -7 4 -10 4 -6 -1 4 -4 -2 -30 -12 -58 -11 -27 -17 -54 -14 -59
3 -4 0 -8 -6 -8 -6 0 -10 -8 -8 -17 1 -10 0 -22 -4 -28 -6 -11 -34 -132 -44
-192 -8 -47 -12 -68 -14 -68 -2 0 -13 -130 -14 -167 -1 -16 -3 -28 -6 -28 -3
0 -6 -9 -6 -20 0 -11 5 -20 11 -20 5 0 5 -4 -2 -8 -8 -5 -13 -45 -15 -112 -2
-58 -7 -111 -11 -117 -5 -8 -3 -13 5 -13 8 0 9 -3 3 -8 -6 -4 -10 -54 -10
-112 0 -58 -4 -108 -10 -112 -6 -5 -4 -8 5 -8 13 0 13 -1 0 -10 -13 -9 -13
-10 0 -10 13 0 13 -1 0 -10 -11 -7 -11 -10 -2 -10 9 0 10 -5 2 -19 -7 -14 -7
-22 0 -26 6 -4 8 -11 4 -16 -3 -6 -6 -55 -6 -110 0 -66 -4 -97 -11 -92 -6 4
-7 1 -1 -8 11 -18 13 -278 2 -285 -5 -3 -5 -11 -1 -17 12 -20 14 -49 3 -62 -5
-6 -7 -15 -3 -19 11 -11 12 -89 1 -103 -5 -7 -5 -14 2 -18 5 -3 10 -17 10 -31
0 -18 -4 -23 -13 -18 -9 6 -9 4 1 -8 9 -11 9 -18 3 -23 -7 -4 -6 -13 2 -26 10
-16 9 -21 -3 -29 -8 -5 -10 -10 -5 -10 12 0 14 -159 2 -177 -4 -6 -4 -14 1
-17 10 -6 10 -531 0 -541 -4 -4 -1 -16 5 -26 10 -16 9 -21 -3 -29 -8 -5 -10
-10 -4 -10 12 0 13 -78 2 -96 -4 -6 -4 -14 0 -18 11 -12 10 -150 -2 -158 -7
-5 -7 -8 2 -8 6 0 12 -9 12 -21 0 -13 -4 -18 -12 -13 -8 5 -8 3 -2 -7 13 -20
12 -449 -1 -449 -6 0 -7 -3 0 -8 16 -11 18 -52 3 -52 -8 0 -9 -3 -3 -8 14 -10
15 -105 1 -114 -7 -5 -7 -8 0 -8 11 0 13 -78 2 -96 -4 -6 -4 -14 0 -18 12 -13
11 -197 -2 -189 -6 4 -5 0 2 -9 9 -11 10 -18 2 -23 -6 -3 -7 -12 -3 -18 12
-19 11 -567 -2 -567 -7 0 -7 -3 0 -8 16 -10 17 -105 2 -95 -8 4 -8 2 1 -9 9
-11 10 -18 2 -23 -6 -3 -7 -12 -3 -18 12 -18 10 -97 -2 -97 -7 0 -7 -3 0 -8 7
-4 11 -103 12 -280 1 -150 3 -279 6 -287 3 -7 1 -16 -6 -19 -7 -2 -7 -5 -2 -5
10 -1 11 -80 1 -106 -3 -8 -1 -17 3 -20 5 -2 7 -18 6 -35 -1 -17 1 -33 6 -36
5 -3 6 -11 2 -17 -11 -17 -12 -77 -1 -77 5 0 4 -9 -2 -19 -7 -14 -7 -22 0 -26
8 -5 7 -11 -1 -21 -8 -10 -8 -14 0 -14 6 0 11 -5 11 -11 0 -5 -6 -7 -13 -3 -9
6 -9 4 -1 -7 6 -8 12 -39 13 -69 2 -30 4 -68 6 -85 2 -16 6 -54 9 -83 3 -29 8
-57 11 -62 4 -6 1 -10 -6 -10 -8 0 -9 -3 0 -13 6 -8 8 -17 5 -20 -3 -3 -2 -12
2 -19 5 -7 9 -24 9 -38 0 -14 4 -31 8 -37 5 -8 3 -13 -5 -13 -9 0 -10 -3 -2
-8 9 -6 27 -77 29 -119 0 -6 4 -15 8 -19 4 -4 7 -19 7 -33 0 -14 4 -33 10 -41
6 -9 5 -20 -3 -29 -7 -8 -7 -12 -2 -9 6 4 17 -2 24 -14 7 -11 8 -17 2 -13 -6
3 -11 2 -11 -4 0 -5 5 -11 10 -13 6 -2 12 -13 13 -26 0 -12 5 -22 9 -22 4 0 8
-8 8 -18 0 -10 8 -28 17 -41 12 -18 13 -22 2 -16 -8 5 -7 1 4 -12 9 -11 15
-22 12 -25 -3 -3 1 -11 10 -18 8 -7 15 -20 15 -30 0 -9 9 -25 20 -35 11 -10
17 -21 15 -26 -3 -4 0 -11 6 -14 5 -4 8 -13 5 -20 -2 -7 4 -15 16 -18 13 -4
19 -11 15 -21 -3 -8 1 -17 9 -20 8 -3 14 -15 14 -26 0 -12 4 -18 10 -15 9 6
15 -16 11 -39 -1 -5 5 -6 14 -2 9 3 13 2 10 -4 -3 -5 3 -20 14 -32 12 -12 21
-26 21 -30 0 -5 5 -6 12 -2 7 4 8 3 4 -4 -4 -7 -2 -12 3 -12 6 0 11 -7 11 -15
0 -9 7 -18 15 -21 12 -5 13 -10 5 -19 -9 -11 -6 -12 12 -8 18 4 20 3 8 -6 -13
-9 -13 -11 2 -11 24 0 50 -40 37 -56 -7 -8 -6 -15 2 -20 8 -4 9 -3 5 4 -11 18
19 15 34 -3 7 -8 9 -22 6 -31 -5 -14 -4 -15 9 -4 14 11 19 7 16 -13 0 -4 4 -7
10 -7 5 0 8 -4 5 -9 -3 -5 2 -8 12 -7 9 0 16 -4 15 -11 -1 -6 5 -17 14 -25 14
-11 16 -11 8 1 -5 9 2 7 17 -5 14 -10 24 -22 23 -25 -2 -3 5 -11 15 -19 10 -8
17 -17 14 -22 -3 -4 2 -5 10 -2 11 4 16 0 16 -11 0 -9 5 -13 10 -10 6 3 13 -1
16 -9 3 -9 12 -16 20 -16 8 0 14 -4 14 -10 0 -5 7 -10 16 -10 8 0 13 -4 10 -8
-3 -5 11 -16 30 -25 19 -9 37 -24 40 -32 4 -8 10 -12 15 -10 4 3 14 -3 20 -14
7 -10 18 -17 24 -15 6 3 20 -4 32 -15 11 -11 24 -17 27 -14 3 4 6 1 6 -6 0 -7
5 -9 10 -6 10 6 13 -3 13 -37 0 -10 4 -15 8 -12 5 3 7 9 4 14 -3 5 -1 11 5 15
9 6 14 -8 11 -28 -1 -5 3 -6 9 -2 6 3 8 11 5 16 -3 5 1 6 9 3 9 -3 16 -10 16
-15 0 -5 7 -9 15 -9 8 0 15 -5 15 -11 0 -5 5 -7 10 -4 6 3 10 1 10 -4 0 -6 6
-10 13 -9 6 2 11 -5 9 -14 -1 -9 2 -19 8 -23 5 -3 7 0 4 8 -8 22 12 30 29 12
9 -8 25 -15 36 -15 11 0 23 -5 26 -10 4 -6 10 -8 15 -5 5 3 11 1 15 -5 4 -6
11 -8 16 -5 5 4 9 2 9 -2 0 -5 9 -14 21 -21 16 -10 19 -10 13 -1 -5 9 -2 10
10 6 10 -4 20 -7 22 -7 3 0 3 -3 1 -7 -3 -5 11 -9 31 -10 59 -4 63 -5 57 -22
-3 -11 0 -10 10 3 8 11 15 14 15 8 0 -7 9 -12 20 -12 10 0 24 -8 30 -17 11
-17 11 -17 6 0 -3 9 -1 17 4 17 6 0 10 -4 10 -10 0 -5 7 -7 15 -4 8 4 15 1 15
-5 0 -6 5 -11 11 -11 6 0 7 6 2 13 -4 6 5 4 20 -6 25 -16 26 -16 21 0 -4 11
-3 14 3 6 7 -10 43 -17 134 -27 14 -1 31 -6 37 -10 7 -4 12 -2 12 4 0 6 5 8
10 5 8 -5 7 -12 -2 -23 -9 -12 -6 -12 9 2 19 15 25 16 38 6 8 -7 12 -17 8 -23
-3 -6 -1 -7 6 -3 9 6 9 11 1 21 -9 11 -7 14 9 12 11 0 17 -5 15 -9 -3 -4 0 -8
5 -8 6 0 11 6 11 13 0 9 3 8 9 -2 5 -7 14 -10 20 -7 6 4 11 1 11 -6 0 -8 3 -9
8 -3 10 13 62 14 62 1 0 -6 5 -4 10 4 6 10 10 11 10 3 0 -7 5 -13 11 -13 5 0
7 6 4 13 -4 6 0 4 8 -6 13 -16 15 -16 21 -2 4 12 11 13 23 7 10 -5 24 -7 32
-4 10 3 11 0 5 -9 -7 -12 -5 -12 9 0 12 9 17 10 17 2 0 -7 5 -9 12 -5 17 11
88 12 120 3 16 -4 30 -3 34 2 8 13 26 0 21 -15 -3 -7 1 -13 8 -13 7 0 11 9 9
21 -3 12 -1 15 2 8 4 -9 9 -10 19 -2 10 8 15 8 21 -1 5 -8 3 -9 -6 -4 -9 5
-11 4 -6 -4 6 -9 11 -9 21 -1 16 13 30 -3 19 -22 -5 -7 -3 -8 5 -4 7 5 10 13
8 20 -3 8 43 11 172 10 175 0 208 -5 195 -26 -4 -7 -2 -8 4 -4 6 4 9 14 6 24
-5 14 -3 14 10 -2 16 -20 16 -20 16 0 1 19 1 19 15 0 14 -18 15 -18 15 -2 0 9
4 15 9 11 6 -3 8 -15 6 -27 -3 -11 -1 -17 3 -14 7 7 8 11 11 37 1 8 7 7 18 -2
9 -8 14 -9 11 -4 -4 6 19 10 60 10 50 0 69 -4 74 -15 5 -12 7 -12 7 2 1 20 39
17 53 -4 5 -9 8 -8 8 5 0 10 5 15 10 12 6 -4 8 -12 4 -18 -3 -7 0 -5 8 3 9 11
33 15 80 15 71 0 76 -2 55 -25 -10 -12 -9 -12 4 -2 9 6 19 9 23 5 4 -4 4 0 1
9 -5 14 -2 16 16 13 12 -3 26 -10 31 -17 5 -9 8 -8 8 5 0 10 5 15 10 12 6 -4
8 -10 6 -14 -3 -4 1 -8 8 -8 8 0 12 5 10 11 -4 10 17 11 70 7 5 -1 5 -7 0 -14
-5 -7 -1 -5 8 5 15 16 18 17 31 3 20 -20 28 -19 20 3 -6 15 -5 15 10 3 9 -7
17 -10 17 -5 0 8 25 9 74 5 5 -1 2 -9 -5 -18 -12 -16 -12 -17 2 -6 9 7 19 10
23 6 4 -4 4 1 1 12 -7 20 -6 20 9 1 15 -19 16 -19 16 -2 0 16 2 17 17 5 11
-10 14 -10 9 -1 -4 6 -2 12 3 12 6 0 11 -6 11 -12 0 -9 4 -8 10 2 9 14 15 6
10 -15 -1 -5 2 -7 6 -3 4 4 12 3 19 -2 8 -7 12 -5 12 5 0 8 -4 12 -9 9 -4 -3
-8 -1 -8 4 0 12 93 9 102 -3 5 -6 8 -6 8 2 0 15 41 8 52 -9 5 -9 8 -8 8 5 0
10 5 15 10 12 6 -4 8 -10 5 -15 -3 -5 0 -12 6 -16 7 -4 9 -3 6 2 -3 6 -2 16 4
24 7 13 9 13 9 0 0 -13 1 -13 10 0 9 13 11 13 20 0 5 -8 10 -10 10 -5 0 6 20
10 45 10 48 0 52 -3 33 -25 -11 -12 -10 -12 3 -2 9 6 19 9 23 5 4 -4 4 0 1 9
-8 21 22 18 36 -3 7 -11 9 -10 9 6 0 17 2 17 10 5 9 -13 10 -13 10 0 1 11 4
10 17 -5 13 -16 15 -17 10 -2 -4 9 -2 17 3 17 10 0 14 -15 10 -35 -1 -5 2 -6
7 -2 4 5 8 14 8 20 0 12 97 13 116 2 5 -4 9 -1 9 6 0 8 4 8 15 -1 11 -9 15 -9
15 -1 0 7 5 9 10 6 6 -4 8 -11 5 -16 -4 -5 -2 -9 4 -9 5 0 11 7 13 16 3 14 6
13 29 -4 19 -15 26 -17 26 -7 0 8 -4 12 -9 9 -4 -3 -8 -1 -8 4 0 5 15 8 33 7
20 -2 31 -8 29 -17 -1 -7 5 -4 13 6 14 18 20 15 16 -7 -1 -5 3 -6 9 -2 6 3 8
9 6 13 -2 4 18 7 45 7 52 0 56 -3 37 -25 -11 -12 -10 -12 2 -3 8 6 20 12 25
13 6 1 12 4 15 7 3 4 -1 3 -7 -1 -7 -4 -13 -2 -13 3 0 13 11 14 35 5 13 -5 14
-8 3 -15 -10 -7 -10 -9 0 -9 7 0 15 7 18 15 4 8 10 12 15 9 5 -3 7 -9 4 -14
-3 -5 -1 -12 5 -15 6 -4 10 -3 9 2 -4 23 3 30 26 25 14 -2 22 -8 20 -12 -3 -5
-1 -12 5 -15 6 -4 10 -3 9 2 -1 4 -1 14 0 22 1 11 4 11 18 0 11 -10 14 -10 9
-1 -4 6 -2 12 3 12 6 0 11 -6 11 -12 0 -8 3 -9 8 -3 4 6 30 10 57 10 28 0 53
-4 57 -10 5 -6 8 -4 8 5 0 13 1 13 10 0 8 -12 11 -13 19 -1 7 11 9 11 14 0 3
-8 6 -9 6 -3 1 15 83 6 93 -9 5 -8 8 -5 9 8 l0 20 9 -20 c7 -17 9 -17 9 -2 1
22 18 22 24 0 4 -15 5 -15 6 -2 1 12 10 15 39 13 20 -2 47 -3 60 -3 13 -1 21
-5 18 -9 -3 -5 1 -9 8 -9 8 0 12 6 9 13 -4 10 2 11 26 4 22 -6 31 -5 31 3 0 7
4 6 10 -3 8 -12 10 -12 10 -1 0 8 8 4 20 -10 11 -13 20 -19 19 -14 -3 22 2 35
12 35 6 0 8 -8 5 -18 -6 -16 -5 -16 7 0 10 12 17 14 31 6 14 -8 17 -7 12 1 -4
6 -3 11 3 11 5 0 12 -8 14 -17 4 -16 5 -16 6 -2 1 14 7 15 36 9 23 -5 36 -4
39 4 2 6 5 4 5 -5 1 -8 -5 -21 -11 -29 -11 -12 -10 -12 5 -1 9 7 17 19 17 25
0 13 58 14 78 2 7 -4 12 -4 12 1 0 4 20 8 45 8 27 0 45 -5 45 -11 0 -6 8 -18
18 -25 15 -12 16 -12 5 1 -8 10 -9 21 -3 30 9 13 10 13 10 0 0 -13 1 -13 10 0
5 8 12 11 16 7 4 -3 2 -12 -4 -20 -8 -10 -7 -13 7 -13 13 0 17 6 13 21 -5 20
-5 20 17 1 18 -17 21 -17 15 -3 -3 10 -1 17 5 17 6 0 11 -6 11 -14 0 -7 8 -20
18 -27 14 -11 15 -11 5 1 -21 24 -17 43 7 30 11 -6 17 -16 14 -22 -4 -7 -3 -8
5 -4 6 4 9 11 6 16 -3 4 11 10 30 12 19 2 35 0 35 -4 0 -4 -5 -8 -12 -8 -6 0
-8 -3 -4 -7 4 -5 14 1 22 11 12 17 14 18 14 3 0 -9 4 -17 10 -17 5 0 7 7 3 16
-5 14 -3 15 15 5 14 -7 22 -8 22 -2 0 7 9 7 25 1 14 -5 25 -6 25 -2 0 8 85 6
108 -3 6 -2 12 -1 12 4 0 4 11 6 25 3 14 -2 22 -8 19 -13 -3 -5 0 -9 5 -9 6 0
11 8 11 18 0 14 2 15 10 2 6 -10 10 -11 10 -2 0 17 16 15 36 -5 15 -15 17 -15
28 -1 9 12 16 14 30 6 14 -8 17 -7 12 1 -4 6 -2 11 3 11 6 0 11 -7 11 -15 0
-8 4 -15 10 -15 5 0 7 6 4 13 -7 20 57 17 74 -3 11 -13 11 -13 7 0 -4 13 9 15
84 14 49 -1 95 -5 102 -9 8 -5 10 -4 5 3 -10 16 7 15 23 0 11 -11 12 -10 6 1
-5 9 -4 12 3 7 6 -3 13 -2 17 4 4 6 12 7 18 3 7 -4 17 -8 22 -9 6 0 16 -2 23
-2 7 -1 10 -7 6 -14 -4 -7 -3 -8 5 -4 6 4 9 11 6 16 -3 5 -1 11 5 15 5 3 10 2
10 -3 0 -6 7 -13 16 -16 9 -3 12 -2 9 4 -4 7 3 9 19 6 14 -3 26 -1 26 4 0 5
13 5 30 0 17 -5 30 -5 30 0 0 13 31 5 40 -10 5 -8 6 -19 2 -25 -3 -5 1 -4 10
2 8 7 18 10 21 6 4 -3 7 -1 7 6 0 7 -6 11 -14 8 -8 -3 -16 0 -19 7 -4 9 19 12
89 11 52 0 94 3 94 6 0 4 21 6 48 4 26 -1 52 1 57 4 18 10 64 7 58 -4 -3 -5 0
-4 8 2 19 19 35 16 47 -9 11 -23 11 -23 6 2 -4 23 -2 25 31 27 21 1 35 -3 36
-10 0 -7 4 -3 9 8 5 11 9 14 9 7 1 -10 6 -10 22 -2 11 7 26 9 34 7 7 -3 23 2
36 10 12 9 19 11 15 5 -9 -14 3 -15 24 -2 10 6 21 4 35 -8 17 -15 18 -15 7 -1
-11 14 -9 17 15 22 16 3 37 7 48 10 11 2 30 1 42 -4 18 -7 21 -5 16 9 -3 9 -3
14 2 10 4 -4 15 -3 22 4 11 9 17 9 24 -3 7 -11 9 -11 9 3 0 11 5 15 14 12 8
-3 17 0 21 5 3 6 11 9 16 5 14 -8 0 -26 -14 -18 -7 4 -8 3 -4 -1 18 -20 35
-13 31 12 -3 16 -1 22 6 18 6 -4 18 -1 26 6 13 10 17 10 25 -2 7 -11 9 -11 9
4 0 10 5 15 10 12 6 -3 10 -1 10 5 0 7 6 10 13 7 7 -3 24 4 38 14 13 10 27 19
31 19 8 0 5 -21 -7 -40 -8 -13 -7 -13 8 -1 9 7 15 16 13 20 -3 4 -1 13 4 21 8
13 12 13 32 1 20 -13 22 -12 11 1 -15 18 1 38 29 38 10 0 18 5 18 11 0 5 5 7
10 4 6 -3 10 -3 10 2 0 4 10 13 23 19 67 34 87 46 87 55 0 6 5 7 10 4 6 -3 10
-1 10 5 0 6 4 9 9 6 5 -3 12 1 15 10 4 9 13 14 22 10 8 -3 12 -2 9 3 -3 6 8
18 25 27 16 10 30 22 30 26 0 4 5 8 11 8 7 0 25 14 41 30 16 17 33 28 38 25 6
-4 10 2 10 11 0 10 3 15 6 11 4 -3 15 4 26 16 13 14 18 16 15 6 -3 -9 0 -16 7
-16 8 0 11 10 8 25 -4 20 -2 24 11 19 11 -4 14 -2 11 7 -7 18 16 32 26 16 5
-8 9 -7 13 5 4 9 3 13 -3 10 -21 -13 -8 8 29 47 22 22 44 37 50 34 5 -4 15 3
21 15 9 17 9 20 0 14 -8 -5 -11 -3 -8 6 3 8 12 13 20 13 9 -1 15 6 14 14 0 9
10 22 24 29 14 7 19 13 11 13 -8 0 -4 8 10 21 13 11 17 17 9 13 -8 -4 -3 5 12
20 15 15 33 41 40 57 7 16 19 29 26 29 8 0 10 5 6 12 -5 8 -2 9 11 4 14 -5 16
-4 6 7 -8 11 -6 18 9 32 11 10 17 22 14 26 -3 5 2 9 11 9 11 0 15 5 11 15 -3
10 1 15 12 15 13 0 14 2 3 9 -11 7 -10 10 4 18 9 5 17 14 17 19 2 23 11 44 19
44 5 0 9 9 9 19 0 11 8 27 17 37 10 10 16 19 15 21 -2 2 1 17 7 33 5 17 11 34
12 38 1 4 9 13 18 20 9 8 11 11 4 8 -7 -4 -9 1 -6 14 3 11 10 20 15 20 5 0 6
4 3 10 -3 6 -3 16 2 23 8 12 13 32 15 55 1 6 5 12 10 12 5 0 7 4 4 9 -6 9 9
64 25 95 7 13 7 16 0 11 -6 -3 -11 -1 -11 4 0 6 5 11 11 11 5 0 7 5 4 10 -3 6
-1 10 6 10 8 0 8 4 -1 15 -8 9 -9 15 -2 15 6 0 9 10 7 22 -3 12 3 27 13 35 9
8 12 12 5 9 -7 -4 -11 1 -10 14 1 11 6 20 12 20 5 0 4 4 -4 9 -8 5 -9 11 -3
15 6 3 8 16 4 28 -3 11 -1 19 4 16 5 -4 8 14 7 38 0 27 3 44 10 44 8 0 8 3 2
8 -14 10 -17 32 -4 32 8 0 8 5 -1 15 -8 9 -8 15 -2 15 6 0 9 11 6 26 -3 17 -1
23 7 19 8 -6 8 -2 0 12 -6 11 -8 23 -5 26 4 3 6 28 7 54 0 26 4 54 10 61 6 8
6 12 -1 12 -9 0 -10 35 -2 60 1 3 2 32 2 65 1 33 6 63 12 67 8 5 7 8 -1 8 -7
0 -13 7 -13 16 0 9 5 12 13 8 9 -6 9 -5 0 7 -16 20 -17 31 -1 40 7 5 9 9 3 9
-14 0 -10 143 4 148 7 2 5 9 -4 19 -8 8 -13 19 -9 24 3 5 6 256 6 557 0 394 3
551 12 561 8 12 8 13 -1 7 -10 -5 -13 4 -13 34 0 30 3 39 13 34 9 -6 9 -5 1 7
-16 20 -16 671 0 681 8 6 8 8 -1 8 -16 0 -15 381 1 392 8 5 7 8 -1 8 -16 0
-15 218 1 239 8 11 8 13 -1 7 -10 -5 -13 6 -13 44 0 38 3 49 13 44 9 -6 9 -5
0 7 -15 19 -15 278 1 298 8 11 8 13 -1 7 -10 -5 -13 4 -13 36 0 24 6 50 13 57
6 8 7 11 1 8 -16 -9 -18 111 -2 131 9 11 9 14 1 9 -16 -10 -16 371 1 392 8 11
8 13 -1 7 -18 -10 -18 75 0 93 7 9 8 11 0 7 -15 -8 -15 116 1 126 8 6 7 8 -1
8 -9 0 -13 17 -13 51 0 37 3 48 13 43 9 -6 9 -5 0 7 -7 9 -11 58 -11 136 0 67
-3 126 -6 132 -4 5 -2 12 4 16 6 4 7 11 4 17 -11 18 -10 222 1 237 7 11 7 13
-2 8 -8 -5 -11 9 -11 51 1 33 -2 64 -6 70 -3 6 -2 13 4 17 6 4 7 11 3 18 -3 6
-8 45 -9 86 -1 42 -3 78 -4 81 -1 3 -1 13 0 24 1 10 -4 23 -12 27 -9 6 -9 9
-1 9 7 0 10 9 7 23 -2 12 -7 47 -10 77 -10 99 -13 125 -14 125 -2 0 -11 58
-12 75 -2 53 -72 319 -105 400 -3 8 -5 18 -5 23 1 4 -3 7 -9 7 -5 0 -7 5 -4
10 3 6 1 10 -4 10 -6 0 -11 9 -11 20 0 11 -5 20 -10 20 -6 0 -9 3 -8 8 4 20
-130 253 -182 315 -39 48 -46 57 -60 77 -39 57 -173 196 -266 277 -78 67 -208
163 -221 163 -7 0 -13 4 -13 8 0 7 -50 38 -195 118 -27 15 -51 27 -53 25 -1
-1 -27 10 -57 24 -31 14 -59 24 -63 23 -4 -1 -20 4 -35 10 -16 7 -34 12 -42
12 -8 0 -17 5 -20 10 -4 6 -11 8 -16 4 -5 -3 -15 -1 -22 4 -7 5 -20 8 -29 7
-10 -2 -18 1 -18 5 0 5 -8 9 -17 9 -10 0 -25 1 -33 3 -31 9 -76 17 -115 23
-74 11 -170 23 -185 24 -8 0 -40 3 -70 6 -30 4 -80 7 -111 9 -31 2 -62 7 -69
11 -9 6 -11 4 -5 -4 6 -10 3 -11 -14 -2 -16 9 -21 9 -21 -1 0 -8 -3 -9 -8 -3
-4 6 -52 12 -107 14 -128 5 -4753 10 -4757 6z m6502 -8745 c0 -5 -2 -10 -4
-10 -3 0 -8 5 -11 10 -3 6 -1 10 4 10 6 0 11 -4 11 -10z"/>
<path d="M476 2002 c-3 -5 1 -9 9 -9 8 0 12 4 9 9 -3 4 -7 8 -9 8 -2 0 -6 -4
-9 -8z"/>
<path d="M9690 1640 c0 -5 5 -10 11 -10 5 0 7 5 4 10 -3 6 -8 10 -11 10 -2 0
-4 -4 -4 -10z"/>
<path d="M9660 1586 c0 -2 7 -7 16 -10 8 -3 12 -2 9 4 -6 10 -25 14 -25 6z"/>
<path d="M650 1526 c0 -2 7 -7 16 -10 8 -3 12 -2 9 4 -6 10 -25 14 -25 6z"/>
<path d="M695 1440 c-3 -6 1 -7 9 -4 18 7 21 14 7 14 -6 0 -13 -4 -16 -10z"/>
<path d="M716 1402 c-3 -5 1 -9 9 -9 8 0 12 4 9 9 -3 4 -7 8 -9 8 -2 0 -6 -4
-9 -8z"/>
<path d="M9515 1320 c3 -5 8 -10 11 -10 2 0 4 5 4 10 0 6 -5 10 -11 10 -5 0
-7 -4 -4 -10z"/>
<path d="M9516 1273 c-6 -14 -5 -15 5 -6 7 7 10 15 7 18 -3 3 -9 -2 -12 -12z"/>
<path d="M9455 1200 c3 -5 8 -10 11 -10 2 0 4 5 4 10 0 6 -5 10 -11 10 -5 0
-7 -4 -4 -10z"/>
<path d="M9406 1158 c3 -5 10 -6 15 -3 13 9 11 12 -6 12 -8 0 -12 -4 -9 -9z"/>
<path d="M9380 1126 c0 -2 8 -10 18 -17 15 -13 16 -12 3 4 -13 16 -21 21 -21
13z"/>
<path d="M9320 1060 c-12 -7 -10 -9 7 -7 12 0 19 5 17 9 -6 10 -6 10 -24 -2z"/>
<path d="M976 1013 c-6 -14 -5 -15 5 -6 7 7 10 15 7 18 -3 3 -9 -2 -12 -12z"/>
<path d="M1076 962 c-3 -5 1 -9 9 -9 8 0 15 4 15 9 0 4 -4 8 -9 8 -6 0 -12 -4
-15 -8z"/>
<path d="M9256 938 c3 -5 10 -6 15 -3 13 9 11 12 -6 12 -8 0 -12 -4 -9 -9z"/>
<path d="M1093 905 c0 -8 4 -12 9 -9 5 3 6 10 3 15 -9 13 -12 11 -12 -6z"/>
<path d="M9113 875 c0 -8 4 -12 9 -9 4 3 8 9 8 15 0 5 -4 9 -8 9 -5 0 -9 -7
-9 -15z"/>
<path d="M9306 878 c3 -5 10 -6 15 -3 13 9 11 12 -6 12 -8 0 -12 -4 -9 -9z"/>
<path d="M9040 815 c-7 -8 -16 -13 -20 -10 -5 3 -11 2 -14 -3 -2 -4 6 -8 19
-8 14 0 22 2 20 5 -3 2 0 10 6 18 6 7 9 13 6 13 -2 0 -10 -7 -17 -15z"/>
<path d="M1276 767 c3 -10 9 -15 12 -12 3 3 0 11 -7 18 -10 9 -11 8 -5 -6z"/>
<path d="M1310 761 c0 -6 4 -13 10 -16 6 -3 7 1 4 9 -7 18 -14 21 -14 7z"/>
<path d="M8956 753 c-6 -14 -5 -15 5 -6 7 7 10 15 7 18 -3 3 -9 -2 -12 -12z"/>
<path d="M8936 727 c3 -10 9 -15 12 -12 3 3 0 11 -7 18 -10 9 -11 8 -5 -6z"/>
<path d="M8874 705 c1 -8 8 -21 16 -28 12 -10 12 -9 2 4 -6 9 -9 18 -6 21 3 3
1 9 -4 12 -6 3 -9 -1 -8 -9z"/>
<path d="M1334 702 c4 -3 14 -7 22 -8 9 -1 13 0 10 4 -4 3 -14 7 -22 8 -9 1
-13 0 -10 -4z"/>
<path d="M1413 665 c0 -8 4 -12 9 -9 5 3 6 10 3 15 -9 13 -12 11 -12 -6z"/>
<path d="M8756 633 c-6 -14 -5 -15 5 -6 7 7 10 15 7 18 -3 3 -9 -2 -12 -12z"/>
<path d="M1456 613 c-6 -14 -5 -15 5 -6 7 7 10 15 7 18 -3 3 -9 -2 -12 -12z"/>
<path d="M1576 607 c3 -10 9 -15 12 -12 3 3 0 11 -7 18 -10 9 -11 8 -5 -6z"/>
<path d="M1695 570 c-4 -6 -11 -7 -17 -4 -7 4 -8 2 -4 -5 6 -9 11 -9 22 0 14
11 18 19 10 19 -3 0 -8 -5 -11 -10z"/>
<path d="M1610 560 c0 -5 5 -10 11 -10 5 0 7 5 4 10 -3 6 -8 10 -11 10 -2 0
-4 -4 -4 -10z"/>
<path d="M1746 542 c-3 -5 1 -9 9 -9 8 0 12 4 9 9 -3 4 -7 8 -9 8 -2 0 -6 -4
-9 -8z"/>
<path d="M1673 525 c0 -8 4 -15 9 -15 4 0 8 4 8 9 0 6 -4 12 -8 15 -5 3 -9 -1
-9 -9z"/>
<path d="M1813 505 c0 -8 4 -12 9 -9 5 3 6 10 3 15 -9 13 -12 11 -12 -6z"/>
<path d="M1735 500 c-3 -5 -1 -10 4 -10 6 0 11 5 11 10 0 6 -2 10 -4 10 -3 0
-8 -4 -11 -10z"/>
<path d="M1880 506 c0 -2 7 -7 16 -10 8 -3 12 -2 9 4 -6 10 -25 14 -25 6z"/>
<path d="M1944 478 c-4 -7 -3 -8 5 -4 6 4 20 2 29 -6 15 -12 16 -11 3 5 -16
20 -27 22 -37 5z"/>
<path d="M8300 486 c0 -2 8 -10 18 -17 15 -13 16 -12 3 4 -13 16 -21 21 -21
13z"/>
<path d="M1895 460 c3 -5 8 -10 11 -10 2 0 4 5 4 10 0 6 -5 10 -11 10 -5 0 -7
-4 -4 -10z"/>
<path d="M8215 461 c-6 -10 11 -24 32 -27 7 -1 15 1 18 6 2 4 -5 7 -18 6 -13
-1 -21 4 -19 12 2 14 -4 16 -13 3z"/>
<path d="M8370 459 c0 -5 5 -7 10 -4 6 3 10 8 10 11 0 2 -4 4 -10 4 -5 0 -10
-5 -10 -11z"/>
<path d="M8169 443 c-13 -16 -12 -17 4 -4 9 7 17 15 17 17 0 8 -8 3 -21 -13z"/>
<path d="M8039 448 c-5 -18 -6 -38 -1 -34 7 8 12 36 6 36 -2 0 -4 -1 -5 -2z"/>
<path d="M8315 440 c3 -5 8 -10 11 -10 2 0 4 5 4 10 0 6 -5 10 -11 10 -5 0 -7
-4 -4 -10z"/>
<path d="M7914 426 c1 -8 5 -18 8 -22 4 -3 5 1 4 10 -1 8 -5 18 -8 22 -4 3 -5
-1 -4 -10z"/>
<path d="M1966 422 c-3 -5 1 -9 9 -9 8 0 12 4 9 9 -3 4 -7 8 -9 8 -2 0 -6 -4
-9 -8z"/>
<path d="M7810 420 c0 -5 5 -10 11 -10 5 0 7 5 4 10 -3 6 -8 10 -11 10 -2 0
-4 -4 -4 -10z"/>
<path d="M7853 409 c-2 -23 3 -25 10 -4 4 8 3 16 -1 19 -4 3 -9 -4 -9 -15z"/>
<path d="M7960 420 c-9 -6 -10 -10 -3 -10 6 0 15 5 18 10 8 12 4 12 -15 0z"/>
<path d="M7325 409 c-4 -6 -5 -12 -2 -15 2 -3 7 2 10 11 7 17 1 20 -8 4z"/>
<path d="M2199 393 c-13 -16 -12 -17 4 -4 16 13 21 21 13 21 -2 0 -10 -8 -17
-17z"/>
<path d="M2307 399 c7 -7 15 -10 18 -7 3 3 -2 9 -12 12 -14 6 -15 5 -6 -5z"/>
<path d="M2785 400 c3 -5 8 -10 11 -10 2 0 4 5 4 10 0 6 -5 10 -11 10 -5 0 -7
-4 -4 -10z"/>
<path d="M7506 398 c3 -4 9 -8 15 -8 5 0 9 4 9 8 0 5 -7 9 -15 9 -8 0 -12 -4
-9 -9z"/>
<path d="M5549 383 c-13 -16 -12 -17 4 -4 16 13 21 21 13 21 -2 0 -10 -8 -17
-17z"/>
<path d="M6190 396 c0 -2 8 -10 18 -17 15 -13 16 -12 3 4 -13 16 -21 21 -21
13z"/>
<path d="M6230 389 c0 -5 5 -7 10 -4 6 3 10 8 10 11 0 2 -4 4 -10 4 -5 0 -10
-5 -10 -11z"/>
<path d="M3190 379 c0 -5 5 -7 10 -4 6 3 10 8 10 11 0 2 -4 4 -10 4 -5 0 -10
-5 -10 -11z"/>
<path d="M3506 378 c3 -5 10 -6 15 -3 13 9 11 12 -6 12 -8 0 -12 -4 -9 -9z"/>
<path d="M3760 380 c-9 -6 -10 -10 -3 -10 6 0 15 5 18 10 8 12 4 12 -15 0z"/>
<path d="M4560 380 c-9 -6 -10 -10 -3 -10 6 0 15 5 18 10 8 12 4 12 -15 0z"/>
<path d="M4796 373 c-6 -14 -5 -15 5 -6 7 7 10 15 7 18 -3 3 -9 -2 -12 -12z"/>
<path d="M5481 376 c-9 -11 -9 -16 1 -22 7 -4 10 -4 6 1 -4 4 -3 14 3 22 6 7
9 13 6 13 -2 0 -10 -6 -16 -14z"/>
<path d="M5986 378 c3 -4 9 -8 15 -8 5 0 9 4 9 8 0 5 -7 9 -15 9 -8 0 -12 -4
-9 -9z"/>
<path d="M6596 373 c-6 -14 -5 -15 5 -6 7 7 10 15 7 18 -3 3 -9 -2 -12 -12z"/>
<path d="M6660 386 c0 -2 8 -10 18 -17 15 -13 16 -12 3 4 -13 16 -21 21 -21
13z"/>
<path d="M6784 382 c4 -3 14 -7 22 -8 9 -1 13 0 10 4 -4 3 -14 7 -22 8 -9 1
-13 0 -10 -4z"/>
<path d="M6870 380 c0 -5 5 -10 10 -10 6 0 10 5 10 10 0 6 -4 10 -10 10 -5 0
-10 -4 -10 -10z"/>
<path d="M6950 380 c0 -5 5 -10 10 -10 6 0 10 5 10 10 0 6 -4 10 -10 10 -5 0
-10 -4 -10 -10z"/>
<path d="M7025 380 c-3 -6 1 -7 9 -4 18 7 21 14 7 14 -6 0 -13 -4 -16 -10z"/>
<path d="M7060 386 c0 -2 8 -10 18 -17 15 -13 16 -12 3 4 -13 16 -21 21 -21
13z"/>
<path d="M8095 380 c3 -5 8 -10 11 -10 2 0 4 5 4 10 0 6 -5 10 -11 10 -5 0 -7
-4 -4 -10z"/>
<path d="M8176 382 c-2 -4 -1 -14 4 -22 7 -11 9 -9 7 8 -1 24 -3 26 -11 14z"/>
<path d="M4035 371 c-3 -5 -2 -12 3 -15 5 -3 9 1 9 9 0 17 -3 19 -12 6z"/>
<path d="M4915 371 c-3 -5 -2 -12 3 -15 5 -3 9 1 9 9 0 17 -3 19 -12 6z"/>
<path d="M5096 367 c3 -10 9 -15 12 -12 3 3 0 11 -7 18 -10 9 -11 8 -5 -6z"/>
<path d="M6255 369 c-4 -6 -5 -12 -2 -15 2 -3 7 2 10 11 7 17 1 20 -8 4z"/>
<path d="M6296 367 c3 -10 9 -15 12 -12 3 3 0 11 -7 18 -10 9 -11 8 -5 -6z"/>
<path d="M6495 369 c-4 -6 -5 -12 -2 -15 2 -3 7 2 10 11 7 17 1 20 -8 4z"/>
<path d="M1675 361 c-3 -5 -2 -12 3 -15 5 -3 9 1 9 9 0 17 -3 19 -12 6z"/>
<path d="M2356 362 c-3 -5 1 -9 9 -9 8 0 12 4 9 9 -3 4 -7 8 -9 8 -2 0 -6 -4
-9 -8z"/>
<path d="M2867 359 c7 -7 15 -10 18 -7 3 3 -2 9 -12 12 -14 6 -15 5 -6 -5z"/>
<path d="M2937 355 c-4 -8 -3 -16 1 -19 4 -3 9 4 9 15 2 23 -3 25 -10 4z"/>
<path d="M3095 360 c-3 -5 -1 -10 4 -10 6 0 11 5 11 10 0 6 -2 10 -4 10 -3 0
-8 -4 -11 -10z"/>
<path d="M3255 360 c3 -5 8 -10 11 -10 2 0 4 5 4 10 0 6 -5 10 -11 10 -5 0 -7
-4 -4 -10z"/>
<path d="M3933 351 c0 -11 5 -18 9 -15 4 3 5 11 1 19 -7 21 -12 19 -10 -4z"/>
<path d="M3977 355 c-4 -8 -3 -16 1 -19 4 -3 9 4 9 15 2 23 -3 25 -10 4z"/>
<path d="M4137 355 c-4 -8 -3 -16 1 -19 4 -3 9 4 9 15 2 23 -3 25 -10 4z"/>
<path d="M4705 359 c-3 -4 2 -6 10 -5 21 3 28 13 10 13 -9 0 -18 -4 -20 -8z"/>
<path d="M4830 359 c0 -5 5 -7 10 -4 6 3 10 8 10 11 0 2 -4 4 -10 4 -5 0 -10
-5 -10 -11z"/>
<path d="M4973 351 c0 -11 5 -18 9 -15 4 3 5 11 1 19 -7 21 -12 19 -10 -4z"/>
<path d="M5017 355 c-4 -8 -3 -16 1 -19 4 -3 9 4 9 15 2 23 -3 25 -10 4z"/>
<path d="M5690 359 c0 -5 5 -7 10 -4 6 3 10 8 10 11 0 2 -4 4 -10 4 -5 0 -10
-5 -10 -11z"/>
<path d="M5916 358 c3 -5 10 -6 15 -3 13 9 11 12 -6 12 -8 0 -12 -4 -9 -9z"/>
<path d="M7773 351 c0 -11 5 -18 9 -15 4 3 5 11 1 19 -7 21 -12 19 -10 -4z"/>
<path d="M7935 360 c-3 -5 -1 -10 4 -10 6 0 11 5 11 10 0 6 -2 10 -4 10 -3 0
-8 -4 -11 -10z"/>
<path d="M2615 341 c-3 -5 -2 -12 3 -15 5 -3 9 1 9 9 0 17 -3 19 -12 6z"/>
<path d="M2733 335 c0 -8 4 -12 9 -9 5 3 6 10 3 15 -9 13 -12 11 -12 -6z"/>
<path d="M2816 342 c-3 -5 1 -9 9 -9 8 0 12 4 9 9 -3 4 -7 8 -9 8 -2 0 -6 -4
-9 -8z"/>
<path d="M3495 340 c3 -5 8 -10 11 -10 2 0 4 5 4 10 0 6 -5 10 -11 10 -5 0 -7
-4 -4 -10z"/>
<path d="M3636 338 c3 -4 11 -5 19 -1 21 7 19 12 -4 10 -11 0 -18 -5 -15 -9z"/>
<path d="M3756 338 c3 -4 11 -5 19 -1 21 7 19 12 -4 10 -11 0 -18 -5 -15 -9z"/>
<path d="M4175 340 c-3 -5 -1 -10 4 -10 6 0 11 5 11 10 0 6 -2 10 -4 10 -3 0
-8 -4 -11 -10z"/>
<path d="M4255 339 c-3 -4 2 -6 10 -5 21 3 28 13 10 13 -9 0 -18 -4 -20 -8z"/>
<path d="M4450 339 c0 -5 5 -7 10 -4 6 3 10 8 10 11 0 2 -4 4 -10 4 -5 0 -10
-5 -10 -11z"/>
<path d="M4555 339 c-3 -4 2 -6 10 -5 21 3 28 13 10 13 -9 0 -18 -4 -20 -8z"/>
<path d="M4615 339 c-3 -4 2 -6 10 -5 21 3 28 13 10 13 -9 0 -18 -4 -20 -8z"/>
<path d="M5055 340 c3 -5 8 -10 11 -10 2 0 4 5 4 10 0 6 -5 10 -11 10 -5 0 -7
-4 -4 -10z"/>
<path d="M5126 338 c3 -5 10 -6 15 -3 13 9 11 12 -6 12 -8 0 -12 -4 -9 -9z"/>
<path d="M5175 340 c3 -5 8 -10 11 -10 2 0 4 5 4 10 0 6 -5 10 -11 10 -5 0 -7
-4 -4 -10z"/>
<path d="M5335 340 c-3 -5 -1 -10 4 -10 6 0 11 5 11 10 0 6 -2 10 -4 10 -3 0
-8 -4 -11 -10z"/>
<path d="M5450 339 c0 -5 5 -7 10 -4 6 3 10 8 10 11 0 2 -4 4 -10 4 -5 0 -10
-5 -10 -11z"/>
<path d="M5775 340 c3 -5 8 -10 11 -10 2 0 4 5 4 10 0 6 -5 10 -11 10 -5 0 -7
-4 -4 -10z"/>
<path d="M6815 340 c3 -5 8 -10 11 -10 2 0 4 5 4 10 0 6 -5 10 -11 10 -5 0 -7
-4 -4 -10z"/>
<path d="M6850 339 c0 -5 5 -7 10 -4 6 3 10 8 10 11 0 2 -4 4 -10 4 -5 0 -10
-5 -10 -11z"/>
<path d="M6895 340 c3 -5 8 -10 11 -10 2 0 4 5 4 10 0 6 -5 10 -11 10 -5 0 -7
-4 -4 -10z"/>
<path d="M6930 339 c0 -5 5 -7 10 -4 6 3 10 8 10 11 0 2 -4 4 -10 4 -5 0 -10
-5 -10 -11z"/>
<path d="M7015 340 c3 -5 8 -10 11 -10 2 0 4 5 4 10 0 6 -5 10 -11 10 -5 0 -7
-4 -4 -10z"/>
<path d="M7370 339 c0 -5 5 -7 10 -4 6 3 10 8 10 11 0 2 -4 4 -10 4 -5 0 -10
-5 -10 -11z"/>
<path d="M2880 320 c-9 -6 -10 -10 -3 -10 6 0 15 5 18 10 8 12 4 12 -15 0z"/>
<path d="M3145 320 c-3 -6 1 -7 9 -4 18 7 21 14 7 14 -6 0 -13 -4 -16 -10z"/>
<path d="M3995 320 c-3 -5 -1 -10 4 -10 6 0 11 5 11 10 0 6 -2 10 -4 10 -3 0
-8 -4 -11 -10z"/>
<path d="M4830 326 c0 -2 7 -7 16 -10 8 -3 12 -2 9 4 -6 10 -25 14 -25 6z"/>
<path d="M6235 301 c-3 -5 -2 -12 3 -15 5 -3 9 1 9 9 0 17 -3 19 -12 6z"/>
<path d="M6433 295 c0 -8 4 -12 9 -9 5 3 6 10 3 15 -9 13 -12 11 -12 -6z"/>
<path d="M6670 301 c0 -6 4 -13 10 -16 6 -3 7 1 4 9 -7 18 -14 21 -14 7z"/>
<path d="M7270 301 c0 -6 4 -13 10 -16 6 -3 7 1 4 9 -7 18 -14 21 -14 7z"/>
<path d="M2275 289 c-4 -6 -5 -12 -2 -15 2 -3 7 2 10 11 7 17 1 20 -8 4z"/>
<path d="M6556 287 c3 -10 9 -15 12 -12 3 3 0 11 -7 18 -10 9 -11 8 -5 -6z"/>
<path d="M3555 281 c-3 -5 -2 -12 3 -15 5 -3 9 1 9 9 0 17 -3 19 -12 6z"/>
<path d="M8380 286 c0 -2 8 -10 18 -17 15 -13 16 -12 3 4 -13 16 -21 21 -21
13z"/>
<path d="M3510 239 c0 -5 5 -7 10 -4 6 3 10 8 10 11 0 2 -4 4 -10 4 -5 0 -10
-5 -10 -11z"/>
<path d="M3585 120 c-3 -6 1 -7 9 -4 18 7 21 14 7 14 -6 0 -13 -4 -16 -10z"/>
</g>
</svg>
